<svg xmlns="http://www.w3.org/2000/svg" xmlns:xlink="http://www.w3.org/1999/xlink" id="body_1" preserveAspectRatio="xMinYMin meet" viewBox="0 0 793 1123">
    <defs>
        <clipPath id="1">
            <path id="" clip-rule="evenodd" transform="matrix(1 0 0 1 0 0)" d="M0 842L0 0L0 0L595 0L595 0L595 842L595 842L0 842z"/>
        </clipPath>
        <clipPath id="2">
            <path id="" clip-rule="evenodd" transform="matrix(1 0 0 1 0 0)"
                  d="M28.5 17.25L566.25 17.25L566.25 17.25L566.25 842.4802L566.25 842.4802L28.5 842.4802L28.5 842.4802L28.5 17.25z"/>
        </clipPath>
        <clipPath id="3">
            <path id="" clip-rule="evenodd" transform="matrix(1 0 0 1 0 0)"
                  d="M28.5 17.25L566.25 17.25L566.25 17.25L566.25 842.4802L566.25 842.4802L28.5 842.4802L28.5 842.4802L28.5 17.25z"/>
        </clipPath>
        <clipPath id="4">
            <path id="" clip-rule="evenodd" transform="matrix(1 0 0 1 0 0)"
                  d="M28.5 142.685L566.25 142.685L566.25 142.685L566.25 210.5039L566.25 210.5039L28.5 210.5039L28.5 210.5039L28.5 142.685z"/>
        </clipPath>
        <clipPath id="5">
            <path id="" clip-rule="evenodd" transform="matrix(1 0 0 1 0 0)"
                  d="M28.5 17.25L566.25 17.25L566.25 17.25L566.25 842.4802L566.25 842.4802L28.5 842.4802L28.5 842.4802L28.5 17.25z"/>
        </clipPath>
        <clipPath id="6">
            <path id="" clip-rule="evenodd" transform="matrix(1 0 0 1 0 0)"
                  d="M28.5 17.25L566.25 17.25L566.25 17.25L566.25 842.4802L566.25 842.4802L28.5 842.4802L28.5 842.4802L28.5 17.25z"/>
        </clipPath>
        <clipPath id="7">
            <path id="" clip-rule="evenodd" transform="matrix(1 0 0 1 0 0)"
                  d="M28.5 142.685L566.25 142.685L566.25 142.685L566.25 210.5039L566.25 210.5039L28.5 210.5039L28.5 210.5039L28.5 142.685z"/>
        </clipPath>
        <clipPath id="8">
            <path id="" clip-rule="evenodd" transform="matrix(1 0 0 1 0 0)"
                  d="M28.5 17.25L566.25 17.25L566.25 17.25L566.25 842.4802L566.25 842.4802L28.5 842.4802L28.5 842.4802L28.5 17.25z"/>
        </clipPath>
        <clipPath id="9">
            <path id="" clip-rule="evenodd" transform="matrix(1 0 0 1 0 0)"
                  d="M28.5 17.25L566.25 17.25L566.25 17.25L566.25 842.4802L566.25 842.4802L28.5 842.4802L28.5 842.4802L28.5 17.25z"/>
        </clipPath>
        <clipPath id="10">
            <path id="" clip-rule="evenodd" transform="matrix(1 0 0 1 0 0)"
                  d="M28.5 142.685L566.25 142.685L566.25 142.685L566.25 210.5039L566.25 210.5039L28.5 210.5039L28.5 210.5039L28.5 142.685z"/>
        </clipPath>
        <clipPath id="11">
            <path id="" clip-rule="evenodd" transform="matrix(1 0 0 1 0 0)"
                  d="M28.5 17.25L566.25 17.25L566.25 17.25L566.25 842.4802L566.25 842.4802L28.5 842.4802L28.5 842.4802L28.5 17.25z"/>
        </clipPath>
        <clipPath id="12">
            <path id="" clip-rule="evenodd" transform="matrix(1 0 0 1 0 0)"
                  d="M28.5 17.25L566.25 17.25L566.25 17.25L566.25 842.4802L566.25 842.4802L28.5 842.4802L28.5 842.4802L28.5 17.25z"/>
        </clipPath>
        <clipPath id="13">
            <path id="" clip-rule="evenodd" transform="matrix(1 0 0 1 0 0)"
                  d="M28.5 142.685L566.25 142.685L566.25 142.685L566.25 210.5039L566.25 210.5039L28.5 210.5039L28.5 210.5039L28.5 142.685z"/>
        </clipPath>
        <clipPath id="14">
            <path id="" clip-rule="evenodd" transform="matrix(1 0 0 1 0 0)"
                  d="M28.5 17.25L566.25 17.25L566.25 17.25L566.25 842.4802L566.25 842.4802L28.5 842.4802L28.5 842.4802L28.5 17.25z"/>
        </clipPath>
        <clipPath id="15">
            <path id="" clip-rule="evenodd" transform="matrix(1 0 0 1 0 0)"
                  d="M28.5 17.25L566.25 17.25L566.25 17.25L566.25 842.4802L566.25 842.4802L28.5 842.4802L28.5 842.4802L28.5 17.25z"/>
        </clipPath>
        <clipPath id="16">
            <path id="" clip-rule="evenodd" transform="matrix(1 0 0 1 0 0)"
                  d="M29.10017 122.8795L72.31223 122.8795L72.31223 122.8795L72.31223 142.0848L72.31223 142.0848L29.10017 142.0848L29.10017 142.0848L29.10017 122.8795z"/>
        </clipPath>
        <clipPath id="17">
            <path id="" clip-rule="evenodd" transform="matrix(1 0 0 1 0 0)"
                  d="M28.5 17.25L566.25 17.25L566.25 17.25L566.25 842.4802L566.25 842.4802L28.5 842.4802L28.5 842.4802L28.5 17.25z"/>
        </clipPath>
        <clipPath id="18">
            <path id="" clip-rule="evenodd" transform="matrix(1 0 0 1 0 0)"
                  d="M28.5 17.25L566.25 17.25L566.25 17.25L566.25 842.4802L566.25 842.4802L28.5 842.4802L28.5 842.4802L28.5 17.25z"/>
        </clipPath>
        <clipPath id="19">
            <path id="" clip-rule="evenodd" transform="matrix(1 0 0 1 0 0)"
                  d="M29.10017 122.8795L72.31223 122.8795L72.31223 122.8795L72.31223 142.0848L72.31223 142.0848L29.10017 142.0848L29.10017 142.0848L29.10017 122.8795z"/>
        </clipPath>
        <clipPath id="20">
            <path id="" clip-rule="evenodd" transform="matrix(1 0 0 1 0 0)"
                  d="M28.5 17.25L566.25 17.25L566.25 17.25L566.25 842.4802L566.25 842.4802L28.5 842.4802L28.5 842.4802L28.5 17.25z"/>
        </clipPath>
        <clipPath id="21">
            <path id="" clip-rule="evenodd" transform="matrix(1 0 0 1 0 0)"
                  d="M28.5 17.25L566.25 17.25L566.25 17.25L566.25 842.4802L566.25 842.4802L28.5 842.4802L28.5 842.4802L28.5 17.25z"/>
        </clipPath>
        <clipPath id="22">
            <path id="" clip-rule="evenodd" transform="matrix(1 0 0 1 0 0)"
                  d="M73.51256 122.8795L132.9291 122.8795L132.9291 122.8795L132.9291 142.0848L132.9291 142.0848L73.51256 142.0848L73.51256 142.0848L73.51256 122.8795z"/>
        </clipPath>
        <clipPath id="23">
            <path id="" clip-rule="evenodd" transform="matrix(1 0 0 1 0 0)"
                  d="M28.5 17.25L566.25 17.25L566.25 17.25L566.25 842.4802L566.25 842.4802L28.5 842.4802L28.5 842.4802L28.5 17.25z"/>
        </clipPath>
        <clipPath id="24">
            <path id="" clip-rule="evenodd" transform="matrix(1 0 0 1 0 0)"
                  d="M28.5 17.25L566.25 17.25L566.25 17.25L566.25 842.4802L566.25 842.4802L28.5 842.4802L28.5 842.4802L28.5 17.25z"/>
        </clipPath>
        <clipPath id="25">
            <path id="" clip-rule="evenodd" transform="matrix(1 0 0 1 0 0)"
                  d="M73.51256 122.8795L132.9291 122.8795L132.9291 122.8795L132.9291 142.0848L132.9291 142.0848L73.51256 142.0848L73.51256 142.0848L73.51256 122.8795z"/>
        </clipPath>
        <clipPath id="26">
            <path id="" clip-rule="evenodd" transform="matrix(1 0 0 1 0 0)"
                  d="M28.5 17.25L566.25 17.25L566.25 17.25L566.25 842.4802L566.25 842.4802L28.5 842.4802L28.5 842.4802L28.5 17.25z"/>
        </clipPath>
        <clipPath id="27">
            <path id="" clip-rule="evenodd" transform="matrix(1 0 0 1 0 0)"
                  d="M28.5 17.25L566.25 17.25L566.25 17.25L566.25 842.4802L566.25 842.4802L28.5 842.4802L28.5 842.4802L28.5 17.25z"/>
        </clipPath>
        <clipPath id="28">
            <path id="" clip-rule="evenodd" transform="matrix(1 0 0 1 0 0)"
                  d="M175.541 127.6808L295.5745 127.6808L295.5745 127.6808L295.5745 137.2835L295.5745 137.2835L175.541 137.2835L175.541 137.2835L175.541 127.6808z"/>
        </clipPath>
        <clipPath id="29">
            <path id="" clip-rule="evenodd" transform="matrix(1 0 0 1 0 0)"
                  d="M28.5 17.25L566.25 17.25L566.25 17.25L566.25 842.4802L566.25 842.4802L28.5 842.4802L28.5 842.4802L28.5 17.25z"/>
        </clipPath>
        <clipPath id="30">
            <path id="" clip-rule="evenodd" transform="matrix(1 0 0 1 0 0)"
                  d="M28.5 17.25L566.25 17.25L566.25 17.25L566.25 842.4802L566.25 842.4802L28.5 842.4802L28.5 842.4802L28.5 17.25z"/>
        </clipPath>
        <clipPath id="31">
            <path id="" clip-rule="evenodd" transform="matrix(1 0 0 1 0 0)"
                  d="M175.541 127.6808L295.5745 127.6808L295.5745 127.6808L295.5745 137.2835L295.5745 137.2835L175.541 137.2835L175.541 137.2835L175.541 127.6808z"/>
        </clipPath>
        <clipPath id="32">
            <path id="" clip-rule="evenodd" transform="matrix(1 0 0 1 0 0)"
                  d="M28.5 17.25L566.25 17.25L566.25 17.25L566.25 842.4802L566.25 842.4802L28.5 842.4802L28.5 842.4802L28.5 17.25z"/>
        </clipPath>
        <clipPath id="33">
            <path id="" clip-rule="evenodd" transform="matrix(1 0 0 1 0 0)"
                  d="M28.5 17.25L566.25 17.25L566.25 17.25L566.25 842.4802L566.25 842.4802L28.5 842.4802L28.5 842.4802L28.5 17.25z"/>
        </clipPath>
        <clipPath id="34">
            <path id="" clip-rule="evenodd" transform="matrix(1 0 0 1 0 0)"
                  d="M296.7748 122.8795L386.1998 122.8795L386.1998 122.8795L386.1998 142.0848L386.1998 142.0848L296.7748 142.0848L296.7748 142.0848L296.7748 122.8795z"/>
        </clipPath>
        <clipPath id="35">
            <path id="" clip-rule="evenodd" transform="matrix(1 0 0 1 0 0)"
                  d="M28.5 17.25L566.25 17.25L566.25 17.25L566.25 842.4802L566.25 842.4802L28.5 842.4802L28.5 842.4802L28.5 17.25z"/>
        </clipPath>
        <clipPath id="36">
            <path id="" clip-rule="evenodd" transform="matrix(1 0 0 1 0 0)"
                  d="M28.5 17.25L566.25 17.25L566.25 17.25L566.25 842.4802L566.25 842.4802L28.5 842.4802L28.5 842.4802L28.5 17.25z"/>
        </clipPath>
        <clipPath id="37">
            <path id="" clip-rule="evenodd" transform="matrix(1 0 0 1 0 0)"
                  d="M296.7748 122.8795L386.1998 122.8795L386.1998 122.8795L386.1998 142.0848L386.1998 142.0848L296.7748 142.0848L296.7748 142.0848L296.7748 122.8795z"/>
        </clipPath>
        <clipPath id="38">
            <path id="" clip-rule="evenodd" transform="matrix(1 0 0 1 0 0)"
                  d="M28.5 17.25L566.25 17.25L566.25 17.25L566.25 842.4802L566.25 842.4802L28.5 842.4802L28.5 842.4802L28.5 17.25z"/>
        </clipPath>
        <clipPath id="39">
            <path id="" clip-rule="evenodd" transform="matrix(1 0 0 1 0 0)"
                  d="M28.5 17.25L566.25 17.25L566.25 17.25L566.25 842.4802L566.25 842.4802L28.5 842.4802L28.5 842.4802L28.5 17.25z"/>
        </clipPath>
        <clipPath id="40">
            <path id="" clip-rule="evenodd" transform="matrix(1 0 0 1 0 0)"
                  d="M387.4001 122.8795L442.6155 122.8795L442.6155 122.8795L442.6155 142.0848L442.6155 142.0848L387.4001 142.0848L387.4001 142.0848L387.4001 122.8795z"/>
        </clipPath>
        <clipPath id="41">
            <path id="" clip-rule="evenodd" transform="matrix(1 0 0 1 0 0)"
                  d="M28.5 17.25L566.25 17.25L566.25 17.25L566.25 842.4802L566.25 842.4802L28.5 842.4802L28.5 842.4802L28.5 17.25z"/>
        </clipPath>
        <clipPath id="42">
            <path id="" clip-rule="evenodd" transform="matrix(1 0 0 1 0 0)"
                  d="M28.5 17.25L566.25 17.25L566.25 17.25L566.25 842.4802L566.25 842.4802L28.5 842.4802L28.5 842.4802L28.5 17.25z"/>
        </clipPath>
        <clipPath id="43">
            <path id="" clip-rule="evenodd" transform="matrix(1 0 0 1 0 0)"
                  d="M387.4001 122.8795L442.6155 122.8795L442.6155 122.8795L442.6155 142.0848L442.6155 142.0848L387.4001 142.0848L387.4001 142.0848L387.4001 122.8795z"/>
        </clipPath>
        <clipPath id="44">
            <path id="" clip-rule="evenodd" transform="matrix(1 0 0 1 0 0)"
                  d="M28.5 17.25L566.25 17.25L566.25 17.25L566.25 842.4802L566.25 842.4802L28.5 842.4802L28.5 842.4802L28.5 17.25z"/>
        </clipPath>
    </defs>
    <g transform="matrix(1.333333 0 0 1.333333 0 0)">
        <g clip-path="url(#1)">
            <path id="1" transform="matrix(1 0 0 -1 0 842)" d="M28.5 780.3376 L566.25 780.3376 L566.25 779.7374 L28.5 779.7374z" stroke="none" fill="#FF0000" fill-rule="nonzero"/>
            <path id="2" transform="matrix(1 0 0 -1 0 842)" d="M28.5 738.3259 L566.25 738.3259 L566.25 737.7257 L28.5 737.7257z" stroke="none" fill="#808080" fill-rule="nonzero"/>
            <path id="3" transform="matrix(1 0 0 -1 0 842)" d="M28.5 714.3209 L566.25 714.3209 L566.25 713.7207 L28.5 713.7207z" stroke="none" fill="#000000"
                  fill-rule="nonzero"/>
            <path id="4" transform="matrix(1 0 0 -1 0 842)" d="M28.5 687.3116 L566.25 687.3116L566.25 686.7115L28.5 686.7115z" stroke="none" fill="#000000"
                  fill-rule="nonzero"/>
        </g>
        <g clip-path="url(#44)">
            <g transform="matrix(0.4976998 0 0 0.5001395 402.4043 142.685)">
                <g transform="matrix(1 0 0 1 0 0)">
                    <image x="0" y="0" xlink:href="img_01.png" width="205" height="108"/>
                </g>
            </g>
        </g>
    </g>
</svg>